<svg xmlns="http://www.w3.org/2000/svg" width="1200" height="630" viewBox="0 0 1200 630">
  <rect width="1200" height="630" fill="#0f172a" rx="32" />
  <g transform="translate(450 150) scale(20)" fill="none" stroke="#e2e8f0" stroke-width="0.8" stroke-linecap="round" stroke-linejoin="round">
    <path d="M12 18V5" />
    <path d="M15 13a4.17 4.17 0 0 1-3-4 4.17 4.17 0 0 1-3 4" />
    <path d="M17.598 6.5A3 3 0 1 0 12 5a3 3 0 1 0-5.598 1.5" />
    <path d="M17.997 5.125a4 4 0 0 1 2.526 5.77" />
    <path d="M18 18a4 4 0 0 0 2-7.464" />
    <path d="M19.967 17.483A4 4 0 1 1 12 18a4 4 0 1 1-7.967-.517" />
    <path d="M6 18a4 4 0 0 1-2-7.464" />
    <path d="M6.003 5.125a4 4 0 0 0-2.526 5.77" />
  </g>
  <text x="600" y="520" text-anchor="middle" fill="#e2e8f0" font-family="Inter, system-ui, -apple-system, BlinkMacSystemFont, 'Segoe UI', sans-serif" font-size="72" font-weight="600" letter-spacing="0.05em">OS – Organization Strategy</text>
</svg>

